<mxfile host="app.diagrams.net" modified="2020-05-15T20:44:07.056Z" agent="5.0 (Windows NT 10.0; Win64; x64) AppleWebKit/537.36 (KHTML, like Gecko) Chrome/81.0.4044.138 Safari/537.36" etag="p4060yXI7xHYIpNfZaxN" version="13.1.1" type="github">
  <diagram id="xR-mRfSLC_EPekcm_FwH" name="Page-1">
    <mxGraphModel dx="1038" dy="548" grid="1" gridSize="10" guides="1" tooltips="1" connect="1" arrows="1" fold="1" page="1" pageScale="1" pageWidth="827" pageHeight="1169" math="0" shadow="0">
      <root>
        <mxCell id="0" />
        <mxCell id="1" parent="0" />
        <mxCell id="VArye4uvs362mJirdZKg-1" value="&lt;font style=&quot;font-size: 18px&quot;&gt;&lt;b&gt;LOC&lt;/b&gt;&lt;/font&gt;" style="rounded=0;whiteSpace=wrap;html=1;" vertex="1" parent="1">
          <mxGeometry x="490" y="150" width="120" height="60" as="geometry" />
        </mxCell>
        <mxCell id="VArye4uvs362mJirdZKg-2" value="&lt;font style=&quot;font-size: 18px&quot;&gt;&lt;b&gt;TS&lt;/b&gt;&lt;/font&gt;" style="rounded=0;whiteSpace=wrap;html=1;" vertex="1" parent="1">
          <mxGeometry x="370" y="150" width="120" height="60" as="geometry" />
        </mxCell>
        <mxCell id="VArye4uvs362mJirdZKg-3" value="&lt;font style=&quot;font-size: 18px&quot;&gt;&lt;b&gt;RSU_ID&lt;/b&gt;&lt;/font&gt;" style="rounded=0;whiteSpace=wrap;html=1;" vertex="1" parent="1">
          <mxGeometry x="250" y="150" width="120" height="60" as="geometry" />
        </mxCell>
      </root>
    </mxGraphModel>
  </diagram>
</mxfile>
